<?xml version="1.0" standalone="no"?><!DOCTYPE svg PUBLIC "-//W3C//DTD SVG 1.1//EN" "http://www.w3.org/Graphics/SVG/1.1/DTD/svg11.dtd"><svg t="1716800339372" class="icon" viewBox="0 0 1042 1024" version="1.1" xmlns="http://www.w3.org/2000/svg" p-id="2493" xmlns:xlink="http://www.w3.org/1999/xlink" width="203.515625" height="200"><path d="M992.914286 464.457143C947.2 402.285714 874.057143 365.714286 797.257143 365.714286c-14.628571 0-31.085714 1.828571-45.714286 3.657143C742.4 245.028571 638.171429 146.285714 510.171429 146.285714 384 146.285714 279.771429 243.2 268.8 363.885714c-27.428571-1.828571-54.857143 1.828571-80.457143 9.142857C82.285714 405.942857 10.971429 502.857143 14.628571 608.914286c3.657143 120.685714 98.742857 219.428571 221.257143 228.571428h14.628572l3.657143-73.142857h-12.8c-84.114286-7.314286-151.771429-74.971429-153.6-159.085714-1.828571-73.142857 47.542857-140.8 122.514285-164.571429 29.257143-9.142857 56.685714-9.142857 87.771429-1.828571 10.971429 3.657143 23.771429 0 32.914286-7.314286s12.8-20.114286 12.8-31.085714c0-7.314286-1.828571-12.8-1.828572-18.285714 0-91.428571 74.971429-164.571429 168.228572-164.571429s168.228571 74.971429 168.228571 164.571429c0 9.142857 0 18.285714-1.828571 27.428571-1.828571 12.8 3.657143 27.428571 12.8 34.742857 10.971429 9.142857 25.6 9.142857 36.571428 3.657143 21.942857-9.142857 45.714286-14.628571 69.485714-14.628571 54.857143 0 106.057143 25.6 137.142858 69.485714 31.085714 42.057143 40.228571 96.914286 23.771428 149.942857-20.114286 64-82.285714 109.714286-155.428571 111.542857h-5.485715v73.142857h7.314286c102.4-3.657143 192-67.657143 221.257143-162.742857 27.428571-71.314286 14.628571-149.942857-31.085714-210.285714z" p-id="2494"></path><path d="M700.342857 541.257143H466.285714l29.257143-21.942857-43.885714-58.514286-118.857143 87.771429c-12.8 9.142857-18.285714 25.6-12.8 40.228571 5.485714 14.628571 18.285714 25.6 34.742857 25.6h309.028572v73.142857h73.142857v-109.714286c0-20.114286-16.457143-36.571429-36.571429-36.571428zM698.514286 724.114286H389.485714v-73.142857h-73.142857v109.714285c0 20.114286 16.457143 36.571429 36.571429 36.571429h234.057143l-29.257143 21.942857 43.885714 58.514286 118.857143-87.771429c12.8-9.142857 18.285714-25.6 12.8-40.228571-5.485714-14.628571-20.114286-25.6-34.742857-25.6z" p-id="2495"></path></svg>